<?xml version="1.0" encoding="UTF-8"?> <svg xmlns="http://www.w3.org/2000/svg" viewBox="0 0 140.11 124.46"><path d="M113.82,5.81h4.66c0,1,.06,1.86,0,2.77s.23,1.3,1.16,1.65a45.86,45.86,0,0,1,4.87,2.42l-2.8,3.93c-.43-.3-.82-.54-1.18-.81a7.61,7.61,0,0,0-6.87-1.11,3.06,3.06,0,0,0-2.46,2.56,2.68,2.68,0,0,0,1.63,2.89c1.59.9,3.27,1.65,4.88,2.52A34.55,34.55,0,0,1,121.77,25c2.14,1.56,3.56,3.6,3.15,6.42a7.7,7.7,0,0,1-5.23,6.67c-1,.35-1.34.81-1.23,1.82a24.92,24.92,0,0,1,0,2.6h-4.66c0-1,0-1.92,0-2.84,0-.62-.1-1-.83-1.08a12.23,12.23,0,0,1-5.93-3l2.62-3.72c.5.34.94.61,1.37.93a7.57,7.57,0,0,0,6.68,1,3.08,3.08,0,0,0,2.5-2.66,2.67,2.67,0,0,0-1.65-2.78c-1.78-1-3.66-1.83-5.45-2.81a24,24,0,0,1-3.85-2.37,7.22,7.22,0,0,1,.68-12,10,10,0,0,1,2-1c1.81-.66,1.82-.64,1.83-2.6Z" style="fill:#cc9866"></path><path d="M116.16,0a24,24,0,1,0,24,24A24,24,0,0,0,116.16,0Zm0,46a22,22,0,1,1,22-22A22,22,0,0,1,116.16,46Z" style="fill:#cc9866"></path><path d="M103.1,47.26v64a8.63,8.63,0,0,1-8.62,8.62H82.05V88.38h5.56V27.09h2a25.7,25.7,0,0,1-.13-2.65c0-.65,0-1.29.09-1.93H13.2A13.2,13.2,0,0,0,0,35.71v75.55a13.2,13.2,0,0,0,13.2,13.2H94.48a13.2,13.2,0,0,0,13.2-13.2V49.2A25.39,25.39,0,0,1,103.1,47.26ZM25.63,119.88H13.2a8.63,8.63,0,0,1-8.62-8.62V35.71a8.63,8.63,0,0,1,8.62-8.62h6.87V88.38h5.56Zm26.49,0h-23V88.38h5.56V27.09H46.56V88.38h5.56Zm26.49,0h-23V88.38h5.56V27.09H73.05V88.38h5.56Z" style="fill:#cc9866"></path></svg> 