<?xml version="1.0" encoding="UTF-8"?> <svg xmlns="http://www.w3.org/2000/svg" viewBox="0 0 116.54 130.95"><path d="M103.24,57.75c-.45-.83-1-1.6-1.52-2.4q-4.77-7.41,0-14.85c.47-.72,1-1.42,1.4-2.16,2.07-3.5.94-7.22-2.74-8.91-1-.46-2-.82-3-1.2a12.83,12.83,0,0,1-7.4-7.29c-1-2.18-.84-4.5-1-6.78-.32-4.41-3.5-6.83-7.83-5.84-1.23.28-2.43.72-3.67.93A12.62,12.62,0,0,1,65.15,5c-.86-1-1.63-2.06-2.54-3A5.71,5.71,0,0,0,54,2c-.76.77-1.43,1.63-2.11,2.47-3.75,4.56-8.49,6-14.16,4.45a14.38,14.38,0,0,0-4.1-.78,5.78,5.78,0,0,0-5.86,5.41c-.12,1.12-.18,2.25-.26,3.37-.39,5.5-3.23,9.23-8.25,11.35-.92.39-1.87.68-2.77,1.09-3.92,1.74-5.09,5.53-2.85,9.17.52.85,1.09,1.66,1.6,2.51a12.65,12.65,0,0,1-.14,14.05c-.52.84-1.1,1.65-1.6,2.5a5.91,5.91,0,0,0,2.74,8.82c1.19.55,2.45.93,3.64,1.46A12.46,12.46,0,0,1,27.3,77a33.88,33.88,0,0,1,.42,4.85c.29,4,3.37,6.47,7.36,5.7,1.15-.21,2.26-.61,3.41-.86a12.54,12.54,0,0,1,13,4.23c.92,1.05,1.76,2.19,2.76,3.16a5.6,5.6,0,0,0,8,0,37,37,0,0,0,2.66-3,12.61,12.61,0,0,1,13.36-4.33c1.1.26,2.18.62,3.28.82A5.9,5.9,0,0,0,88.91,82c.08-1.08.14-2.16.23-3.24a12.37,12.37,0,0,1,7.92-11c1.15-.51,2.37-.88,3.51-1.42A5.88,5.88,0,0,0,103.24,57.75Zm-45,28a37.91,37.91,0,1,1,37.9-37.9A37.9,37.9,0,0,1,58.26,85.78Z" style="fill:#cc9866"></path><path d="M36.24,89.49c-1.1.24-2.16.63-3.26.84a5.66,5.66,0,0,1-7.06-5.47,32.53,32.53,0,0,0-.4-4.65,12.08,12.08,0,0,0-3.7-6.61L0,116.61,20.61,111,28.26,131l19.5-38.42A12,12,0,0,0,36.24,89.49ZM21.86,108.56,3.91,113.43,22.24,77.3a11.43,11.43,0,0,1,1.28,3.34,18.12,18.12,0,0,1,.29,3c0,.47,0,.93.07,1.39.32,4.42,3.49,7.5,7.72,7.5a8.82,8.82,0,0,0,1.76-.17c.69-.13,1.33-.31,2-.48.45-.13.91-.26,1.37-.36a13.39,13.39,0,0,1,2.81-.32A9.36,9.36,0,0,1,45.21,93L28.52,125.92Z" style="fill:#cc9866"></path><path d="M68.79,92.53,88.28,131,95.93,111l20.61,5.6-21.82-43A12.21,12.21,0,0,0,91,80.21a34,34,0,0,0-.4,4.65,5.65,5.65,0,0,1-7.05,5.47c-1.1-.21-2.17-.6-3.27-.84C75.82,88.52,72,89.47,68.79,92.53ZM88,125.92,71.34,93a9.34,9.34,0,0,1,5.72-1.87,13.29,13.29,0,0,1,2.8.32c.46.1.92.23,1.37.36.62.17,1.27.35,2,.48a8.89,8.89,0,0,0,1.76.17A7.65,7.65,0,0,0,92.66,85c0-.46,0-.92.07-1.39a18.12,18.12,0,0,1,.29-3,11.17,11.17,0,0,1,1.29-3.34l18.33,36.13-18-4.87Z" style="fill:#cc9866"></path><path d="M69.73,61.11V16.56l-.42-.16a33.56,33.56,0,0,0-4.92-1.3c-.4-.08-.8-.14-1.21-.2V61.11H58.6V81.29H59a33.18,33.18,0,0,0,15.28-4.09V61.11Z" style="fill:none"></path><path d="M35.68,61.11V23.42c-.17.17-.35.32-.53.49A33.31,33.31,0,0,0,40.27,76V61.11Z" style="fill:none"></path><path d="M52.71,61.11V15l-.48.08a33.9,33.9,0,0,0-4.92,1.3l-1.15.44V61.11H41.58V76.77l.36.22a33.19,33.19,0,0,0,15.35,4.27V61.11Z" style="fill:none"></path><path d="M75.62,61.11V76.43l.49-.29a33.32,33.32,0,0,0,5.36-52.23c-.41-.4-.83-.79-1.26-1.16V61.11Z" style="fill:none"></path><path d="M24.93,47.92a33.29,33.29,0,0,1,10.22-24c.18-.17.36-.32.53-.49V20.89l-.53.44a35.24,35.24,0,0,0,5.12,56.88V76A33.36,33.36,0,0,1,24.93,47.92Z" style="fill:#d3ba9a"></path><path d="M59,81.28H58.6v1.89H59a35.06,35.06,0,0,0,15.28-3.83V77.19A33.18,33.18,0,0,1,59,81.28Z" style="fill:#d3ba9a"></path><path d="M81.47,21.33c-.41-.36-.83-.71-1.26-1.06v2.48c.43.37.85.76,1.26,1.16a33.32,33.32,0,0,1-5.36,52.23l-.49.29v2.21l.49-.27a35.26,35.26,0,0,0,5.36-57Z" style="fill:#d3ba9a"></path><path d="M47.31,16.4a33.9,33.9,0,0,1,4.92-1.3l.48-.08v-1.9l-.48.06a35.37,35.37,0,0,0-4.92,1.22l-1.15.41v2Z" style="fill:#d3ba9a"></path><path d="M64.39,15.1a33.56,33.56,0,0,1,4.92,1.3l.42.16v-2l-.42-.15a34.68,34.68,0,0,0-4.92-1.22c-.4-.07-.81-.11-1.21-.16V14.9C63.59,15,64,15,64.39,15.1Z" style="fill:#d3ba9a"></path><path d="M41.94,77l-.36-.22V79l.36.21a35,35,0,0,0,15.35,4V81.26A33.19,33.19,0,0,1,41.94,77Z" style="fill:#d3ba9a"></path><path d="M40.27,61.11V57.62h1.31v3.49h4.58V16.84a33.65,33.65,0,0,0-10.48,6.58V61.11Z" style="fill:#cc9866"></path><path d="M46.16,16.84v-2a35.38,35.38,0,0,0-10.48,6.08v2.53A33.65,33.65,0,0,1,46.16,16.84Z" style="fill:#d3ba9a"></path><path d="M40.27,61.11V76c.08,0,.16.12.25.17.35.22.7.43,1.06.63V61.11Z" style="fill:#cc9866"></path><path d="M40.52,76.14c-.09,0-.17-.12-.25-.17v2.24l.25.16,1.06.58V76.77C41.22,76.57,40.87,76.36,40.52,76.14Z" style="fill:#d3ba9a"></path><rect x="40.27" y="57.62" width="1.31" height="3.49" style="fill:#cc9866"></rect><path d="M57.29,61.11V57.62H58.6v3.49h4.58V14.9a33.93,33.93,0,0,0-4.87-.37,33.32,33.32,0,0,0-5.6.49V61.11Z" style="fill:#cc9866"></path><path d="M58.31,14.53a33.93,33.93,0,0,1,4.87.37V13a33.92,33.92,0,0,0-4.87-.38,34.4,34.4,0,0,0-5.6.48V15A33.32,33.32,0,0,1,58.31,14.53Z" style="fill:#d3ba9a"></path><path d="M57.29,61.11V81.26l.31,0,.71,0h.29V61.11Z" style="fill:#cc9866"></path><path d="M58.31,81.3l-.71,0-.31,0v1.89l.31,0,.71,0h.29V81.29Z" style="fill:#d3ba9a"></path><rect x="57.29" y="57.62" width="1.31" height="3.49" style="fill:#cc9866"></rect><path d="M69.73,61.11h4.58V57.62h1.31v3.49h4.59V22.75a33.54,33.54,0,0,0-10.48-6.19Z" style="fill:#cc9866"></path><path d="M80.21,22.75V20.27a35.34,35.34,0,0,0-10.48-5.72v2A33.54,33.54,0,0,1,80.21,22.75Z" style="fill:#d3ba9a"></path><path d="M74.31,61.11V77.19l.37-.2c.32-.18.63-.37.94-.56V61.11Z" style="fill:#cc9866"></path><path d="M74.68,77l-.37.2v2.15l.37-.18.94-.52V76.43C75.31,76.62,75,76.81,74.68,77Z" style="fill:#d3ba9a"></path><rect x="74.31" y="57.62" width="1.31" height="3.49" style="fill:#cc9866"></rect></svg> 