<?xml version="1.0" encoding="UTF-8"?> <svg xmlns="http://www.w3.org/2000/svg" viewBox="0 0 147 130.01"><path d="M144.19,23.42c-2.48-.58-4.95-1.11-7.42-1.63l-3.3-.7-6.4-1.36c-.11-.47-.21-.93-.31-1.4L122.77,0,122,2.85l-.07.3-1.9,8.78c-.56,2.58-1.13,5.17-1.69,7.8l-3.51.74-13.41,2.86L99,23.92l2.24.76L112,27l6.38,1.36q.64,3,1.3,6.09l2.91,13.33.78-2.47a1,1,0,0,0,.07-.23l1.7-7.84q1-4.44,1.91-8.88L128.8,28l18.2-3.9Zm-17.84-1.34L133,23.49l2.56.54L126.37,26h0a2.08,2.08,0,0,0-1.66,1.65l-1.95,9.07,0,.15-.64-2.94c-.45-2.06-.9-4.13-1.33-6.2A2.16,2.16,0,0,0,119,26l-6.51-1.39L109.9,24l5.55-1.18,3.48-.73a2.22,2.22,0,0,0,1.83-1.81c.53-2.48,1.07-4.94,1.61-7.41l.36-1.67,1.64,7.61c.12.55.24,1.11.37,1.67A2.18,2.18,0,0,0,126.35,22.08Z" style="fill:#cc9866"></path><path d="M109,46.25,107.67,46l-2.93-.62c0-.21-.09-.42-.14-.64l-1.8-8.26-.34,1.32L101.54,42c-.24,1.12-.49,2.23-.73,3.36l-1.54.32-3.53.76-3.67.81,1.13.38,4.79,1,2.83.6.57,2.69.87,4,.46,2,.38-1.11,1.64-7.54L111,47.91l2.78-.61L112.34,47C111.24,46.72,110.14,46.49,109,46.25Zm-4.66.2,3,.63,1,.21-3.92.83a1,1,0,0,0-.77.76l-.84,3.95-.25-1.15c-.2-.92-.4-1.84-.59-2.76a1,1,0,0,0-.81-.81l-3.89-.82,2.42-.52,1.44-.3a1,1,0,0,0,.84-.84c.25-1.17.51-2.35.76-3.52l.08-.35.69,3.22c.06.25.11.5.17.75A1,1,0,0,0,104.38,46.45Z" style="fill:#cc9866"></path><path d="M128.23,103.48a13.29,13.29,0,0,0-10.27,3V38.94c-.26-1.2-.53-2.39-.78-3.59-.33-1.52-.66-3-1-4.56a.37.37,0,0,0-.27-.27L110.2,29.3H21.88v77.19A13.32,13.32,0,1,0,14.2,130a13.57,13.57,0,0,0,12.44-13.67V36.91H47.32V66.4H44.15A1.11,1.11,0,0,0,43,67.5v39.65a1.11,1.11,0,0,0,1.11,1.11H52.4a1.11,1.11,0,0,0,1.11-1.11V67.5a1.11,1.11,0,0,0-1.11-1.1H49.23V36.91h19.5V66.4H65.55a1.1,1.1,0,0,0-1.1,1.1v39.65a1.11,1.11,0,0,0,1.1,1.11h8.26a1.11,1.11,0,0,0,1.1-1.11V67.5a1.1,1.1,0,0,0-1.1-1.1H70.63V36.91h19.5V66.4H87a1.1,1.1,0,0,0-1.1,1.1v39.65a1.11,1.11,0,0,0,1.1,1.11h8.26a1.11,1.11,0,0,0,1.1-1.11V67.5a1.1,1.1,0,0,0-1.1-1.1H92V36.91H113.2v79.4A13.57,13.57,0,0,0,125.63,130a13.32,13.32,0,0,0,2.6-26.5Z" style="fill:#cc9866"></path></svg> 