<?xml version="1.0" encoding="UTF-8"?> <svg xmlns="http://www.w3.org/2000/svg" viewBox="0 0 124.96 99.39"><path d="M36,0H23.32a1.44,1.44,0,0,0-1.44,1.44v61.4a1.43,1.43,0,0,0,1.44,1.44h5.43V99.36h.48l1,0v0h.31v-35H36a1.44,1.44,0,0,0,1.44-1.44V1.44A1.45,1.45,0,0,0,36,0ZM34.14,62h-9a1.44,1.44,0,0,1-1.44-1.44V3.27a1.45,1.45,0,0,1,1.44-1.45h9a1.45,1.45,0,0,1,1.45,1.45V60.54A1.44,1.44,0,0,1,34.14,62Z" style="fill:#cc9866"></path><path d="M65.63,1.44v61.4a1.44,1.44,0,0,0,1.45,1.44h5.43V98.05H73l1,0v0h.31V64.31h5.43a1.44,1.44,0,0,0,1.45-1.44V1.44A1.45,1.45,0,0,0,79.76,0H67.08A1.45,1.45,0,0,0,65.63,1.44Z" style="fill:#cc9866"></path><path d="M87.51,1.44v61.4A1.43,1.43,0,0,0,89,64.28h5.43V99.36h.48l1,0v0h.31v-35h5.43a1.43,1.43,0,0,0,1.44-1.44V1.44A1.44,1.44,0,0,0,101.64,0H89A1.44,1.44,0,0,0,87.51,1.44Z" style="fill:#cc9866"></path><path d="M109.38,1.44v61.4a1.44,1.44,0,0,0,1.45,1.44h5.43V99.36h.48l1,0v0h.31v-35h5.43A1.44,1.44,0,0,0,125,62.87V1.44A1.45,1.45,0,0,0,123.51,0H110.83A1.45,1.45,0,0,0,109.38,1.44Z" style="fill:#cc9866"></path><rect x="49.67" y="29.68" width="3.93" height="68.37" style="fill:#cc9866"></rect><path d="M118.09,95.44H8.7V64.31h5.43a1.43,1.43,0,0,0,1.44-1.44V1.44A1.44,1.44,0,0,0,14.13,0H1.44A1.45,1.45,0,0,0,0,1.44v61.4a1.44,1.44,0,0,0,1.44,1.44H6.88V99.36H118.09ZM3.31,62a1.44,1.44,0,0,1-1.45-1.44V3.27A1.45,1.45,0,0,1,3.31,1.82h9a1.44,1.44,0,0,1,1.44,1.45V60.54A1.43,1.43,0,0,1,12.27,62Z" style="fill:#cc9866"></path></svg> 